<mxfile host="Electron" agent="Mozilla/5.0 (Macintosh; Intel Mac OS X 10_15_7) AppleWebKit/537.36 (KHTML, like Gecko) draw.io/24.7.17 Chrome/128.0.6613.36 Electron/32.0.1 Safari/537.36" version="24.7.17">
  <diagram id="C5RBs43oDa-KdzZeNtuy" name="Page-1">
    <mxGraphModel dx="2620" dy="1096" grid="1" gridSize="10" guides="1" tooltips="1" connect="1" arrows="1" fold="1" page="1" pageScale="1" pageWidth="827" pageHeight="1169" math="0" shadow="0">
      <root>
        <mxCell id="WIyWlLk6GJQsqaUBKTNV-0" />
        <mxCell id="WIyWlLk6GJQsqaUBKTNV-1" parent="WIyWlLk6GJQsqaUBKTNV-0" />
        <mxCell id="XqHFQ3ukrLC09OGUhirR-0" value="" style="shape=folder;fontStyle=1;spacingTop=10;tabWidth=60;tabHeight=30;tabPosition=left;html=1;whiteSpace=wrap;" parent="WIyWlLk6GJQsqaUBKTNV-1" vertex="1">
          <mxGeometry x="-10" y="80" width="490" height="1480" as="geometry" />
        </mxCell>
        <mxCell id="XqHFQ3ukrLC09OGUhirR-1" value="Patient" style="swimlane;fontStyle=1;align=center;verticalAlign=top;childLayout=stackLayout;horizontal=1;startSize=26;horizontalStack=0;resizeParent=1;resizeLast=0;collapsible=1;marginBottom=0;rounded=0;shadow=0;strokeWidth=1;" parent="WIyWlLk6GJQsqaUBKTNV-1" vertex="1">
          <mxGeometry x="155" y="170" width="230" height="220" as="geometry">
            <mxRectangle x="230" y="140" width="160" height="26" as="alternateBounds" />
          </mxGeometry>
        </mxCell>
        <mxCell id="XqHFQ3ukrLC09OGUhirR-2" value="-id: Integer&#xa;-dni: String&#xa;-password: String&#xa;-name: String&#xa;-surname: String&#xa;-phoneNumber: Integer&#xa;-eMail: String&#xa;-dob: LocalDate&#xa;-gender: Gender&#xa;-doctor: Doctor&#xa;-previousDiseases: ArrayList&lt;Diseases&gt;&#xa;-episodes: ArrayList&lt;Episode&gt;&#xa;&#xa;" style="text;align=left;verticalAlign=top;spacingLeft=4;spacingRight=4;overflow=hidden;rotatable=0;points=[[0,0.5],[1,0.5]];portConstraint=eastwest;" parent="XqHFQ3ukrLC09OGUhirR-1" vertex="1">
          <mxGeometry y="26" width="230" height="194" as="geometry" />
        </mxCell>
        <mxCell id="XqHFQ3ukrLC09OGUhirR-3" value="&lt;b&gt;Doctor&lt;/b&gt;" style="swimlane;fontStyle=0;childLayout=stackLayout;horizontal=1;startSize=30;horizontalStack=0;resizeParent=1;resizeParentMax=0;resizeLast=0;collapsible=1;marginBottom=0;whiteSpace=wrap;html=1;" parent="WIyWlLk6GJQsqaUBKTNV-1" vertex="1">
          <mxGeometry x="165" y="410" width="170" height="200" as="geometry" />
        </mxCell>
        <mxCell id="XqHFQ3ukrLC09OGUhirR-4" value="-id: Integer&lt;div&gt;-dni: String&lt;/div&gt;&lt;div&gt;-password: String&lt;br&gt;&lt;div&gt;-name: String&lt;/div&gt;&lt;div&gt;-surname: String&lt;/div&gt;&lt;div&gt;&lt;span style=&quot;background-color: initial;&quot;&gt;-phoneNumber: Integer&lt;/span&gt;&lt;br&gt;&lt;/div&gt;&lt;div&gt;-eMail: String&lt;/div&gt;&lt;div&gt;-patients: ArrayList&amp;lt;Patient&amp;gt;&lt;/div&gt;&lt;div&gt;&lt;br&gt;&lt;/div&gt;&lt;/div&gt;" style="text;strokeColor=none;fillColor=none;align=left;verticalAlign=middle;spacingLeft=4;spacingRight=4;overflow=hidden;points=[[0,0.5],[1,0.5]];portConstraint=eastwest;rotatable=0;whiteSpace=wrap;html=1;" parent="XqHFQ3ukrLC09OGUhirR-3" vertex="1">
          <mxGeometry y="30" width="170" height="170" as="geometry" />
        </mxCell>
        <mxCell id="XqHFQ3ukrLC09OGUhirR-5" value="&lt;b&gt;Administrator&lt;/b&gt;" style="swimlane;fontStyle=0;childLayout=stackLayout;horizontal=1;startSize=30;horizontalStack=0;resizeParent=1;resizeParentMax=0;resizeLast=0;collapsible=1;marginBottom=0;whiteSpace=wrap;html=1;" parent="WIyWlLk6GJQsqaUBKTNV-1" vertex="1">
          <mxGeometry x="155" y="670" width="140" height="80" as="geometry" />
        </mxCell>
        <mxCell id="XqHFQ3ukrLC09OGUhirR-6" value="&lt;div&gt;-id: Integer&lt;br&gt;&lt;/div&gt;-dni: String&lt;div&gt;-password: String&lt;/div&gt;" style="text;strokeColor=none;fillColor=none;align=left;verticalAlign=middle;spacingLeft=4;spacingRight=4;overflow=hidden;points=[[0,0.5],[1,0.5]];portConstraint=eastwest;rotatable=0;whiteSpace=wrap;html=1;" parent="XqHFQ3ukrLC09OGUhirR-5" vertex="1">
          <mxGeometry y="30" width="140" height="50" as="geometry" />
        </mxCell>
        <mxCell id="XqHFQ3ukrLC09OGUhirR-7" value="&lt;b&gt;Episode&lt;/b&gt;" style="swimlane;fontStyle=0;childLayout=stackLayout;horizontal=1;startSize=30;horizontalStack=0;resizeParent=1;resizeParentMax=0;resizeLast=0;collapsible=1;marginBottom=0;whiteSpace=wrap;html=1;" parent="WIyWlLk6GJQsqaUBKTNV-1" vertex="1">
          <mxGeometry x="105" y="830" width="200" height="140" as="geometry" />
        </mxCell>
        <mxCell id="XqHFQ3ukrLC09OGUhirR-8" value="-id: Integer&lt;div&gt;-date: LocalDateTime&lt;/div&gt;&lt;div&gt;-symptoms: ArrayList&amp;lt;Symptom&amp;gt;&lt;/div&gt;&lt;div&gt;-recordings: ArrayList&amp;lt;Recording&amp;gt;&lt;br&gt;&lt;/div&gt;&lt;div&gt;-diseases: ArrayList&amp;lt;Disease&amp;gt;&lt;/div&gt;&lt;div&gt;-surgeries: ArrayList&amp;lt;Surgery&amp;gt;&lt;/div&gt;" style="text;strokeColor=none;fillColor=none;align=left;verticalAlign=middle;spacingLeft=4;spacingRight=4;overflow=hidden;points=[[0,0.5],[1,0.5]];portConstraint=eastwest;rotatable=0;whiteSpace=wrap;html=1;" parent="XqHFQ3ukrLC09OGUhirR-7" vertex="1">
          <mxGeometry y="30" width="200" height="110" as="geometry" />
        </mxCell>
        <mxCell id="XqHFQ3ukrLC09OGUhirR-9" value="&lt;b&gt;Recording&lt;/b&gt;" style="swimlane;fontStyle=0;childLayout=stackLayout;horizontal=1;startSize=30;horizontalStack=0;resizeParent=1;resizeParentMax=0;resizeLast=0;collapsible=1;marginBottom=0;whiteSpace=wrap;html=1;" parent="WIyWlLk6GJQsqaUBKTNV-1" vertex="1">
          <mxGeometry x="165" y="1000" width="140" height="170" as="geometry" />
        </mxCell>
        <mxCell id="XqHFQ3ukrLC09OGUhirR-10" value="-id: Integer&lt;div&gt;-type: Type&lt;/div&gt;&lt;div&gt;-date: LocalDateTime&lt;/div&gt;&lt;div&gt;-signal_path: String&lt;/div&gt;&lt;div&gt;-duration: Integer&lt;/div&gt;&lt;div&gt;-data: ArraList&amp;lt;Integer&amp;gt;&lt;/div&gt;&lt;div&gt;-episode_id: Integer&lt;/div&gt;" style="text;strokeColor=none;fillColor=none;align=left;verticalAlign=middle;spacingLeft=4;spacingRight=4;overflow=hidden;points=[[0,0.5],[1,0.5]];portConstraint=eastwest;rotatable=0;whiteSpace=wrap;html=1;" parent="XqHFQ3ukrLC09OGUhirR-9" vertex="1">
          <mxGeometry y="30" width="140" height="140" as="geometry" />
        </mxCell>
        <mxCell id="XqHFQ3ukrLC09OGUhirR-11" value="" style="line;strokeWidth=1;fillColor=none;align=left;verticalAlign=middle;spacingTop=-1;spacingLeft=3;spacingRight=3;rotatable=0;labelPosition=right;points=[];portConstraint=eastwest;strokeColor=inherit;" parent="WIyWlLk6GJQsqaUBKTNV-1" vertex="1">
          <mxGeometry x="305" y="886" width="110" height="8" as="geometry" />
        </mxCell>
        <mxCell id="XqHFQ3ukrLC09OGUhirR-12" value="" style="endArrow=none;html=1;rounded=0;" parent="WIyWlLk6GJQsqaUBKTNV-1" edge="1">
          <mxGeometry width="50" height="50" relative="1" as="geometry">
            <mxPoint x="415" y="890" as="sourcePoint" />
            <mxPoint x="415" y="280" as="targetPoint" />
          </mxGeometry>
        </mxCell>
        <mxCell id="XqHFQ3ukrLC09OGUhirR-13" value="1" style="text;html=1;align=center;verticalAlign=middle;whiteSpace=wrap;rounded=0;" parent="WIyWlLk6GJQsqaUBKTNV-1" vertex="1">
          <mxGeometry x="310" y="920" width="60" height="30" as="geometry" />
        </mxCell>
        <mxCell id="XqHFQ3ukrLC09OGUhirR-14" value="1" style="text;html=1;align=center;verticalAlign=middle;whiteSpace=wrap;rounded=0;" parent="WIyWlLk6GJQsqaUBKTNV-1" vertex="1">
          <mxGeometry x="370" y="250" width="60" height="30" as="geometry" />
        </mxCell>
        <mxCell id="XqHFQ3ukrLC09OGUhirR-15" value="m" style="text;html=1;align=center;verticalAlign=middle;whiteSpace=wrap;rounded=0;" parent="WIyWlLk6GJQsqaUBKTNV-1" vertex="1">
          <mxGeometry x="310" y="1130" width="60" height="30" as="geometry" />
        </mxCell>
        <mxCell id="XqHFQ3ukrLC09OGUhirR-16" value="m" style="text;html=1;align=center;verticalAlign=middle;whiteSpace=wrap;rounded=0;" parent="WIyWlLk6GJQsqaUBKTNV-1" vertex="1">
          <mxGeometry x="310" y="864" width="60" height="30" as="geometry" />
        </mxCell>
        <mxCell id="XqHFQ3ukrLC09OGUhirR-17" value="1" style="text;html=1;align=center;verticalAlign=middle;whiteSpace=wrap;rounded=0;" parent="WIyWlLk6GJQsqaUBKTNV-1" vertex="1">
          <mxGeometry x="110" y="471" width="60" height="30" as="geometry" />
        </mxCell>
        <mxCell id="XqHFQ3ukrLC09OGUhirR-19" value="" style="endArrow=none;html=1;rounded=0;entryX=0;entryY=0.542;entryDx=0;entryDy=0;entryPerimeter=0;" parent="WIyWlLk6GJQsqaUBKTNV-1" edge="1">
          <mxGeometry width="50" height="50" relative="1" as="geometry">
            <mxPoint x="115" y="500" as="sourcePoint" />
            <mxPoint x="115" y="259" as="targetPoint" />
          </mxGeometry>
        </mxCell>
        <mxCell id="XqHFQ3ukrLC09OGUhirR-20" value="" style="endArrow=none;html=1;rounded=0;" parent="WIyWlLk6GJQsqaUBKTNV-1" edge="1">
          <mxGeometry width="50" height="50" relative="1" as="geometry">
            <mxPoint x="415" y="1130" as="sourcePoint" />
            <mxPoint x="415" y="920" as="targetPoint" />
          </mxGeometry>
        </mxCell>
        <mxCell id="XqHFQ3ukrLC09OGUhirR-21" value="" style="endArrow=none;html=1;rounded=0;" parent="WIyWlLk6GJQsqaUBKTNV-1" edge="1">
          <mxGeometry width="50" height="50" relative="1" as="geometry">
            <mxPoint x="305" y="1130" as="sourcePoint" />
            <mxPoint x="415" y="1130" as="targetPoint" />
          </mxGeometry>
        </mxCell>
        <mxCell id="XqHFQ3ukrLC09OGUhirR-22" value="" style="endArrow=none;html=1;rounded=0;" parent="WIyWlLk6GJQsqaUBKTNV-1" edge="1">
          <mxGeometry width="50" height="50" relative="1" as="geometry">
            <mxPoint x="305" y="920" as="sourcePoint" />
            <mxPoint x="415" y="920" as="targetPoint" />
          </mxGeometry>
        </mxCell>
        <mxCell id="XqHFQ3ukrLC09OGUhirR-23" value="&lt;b&gt;Symptom&lt;/b&gt;" style="swimlane;fontStyle=0;childLayout=stackLayout;horizontal=1;startSize=30;horizontalStack=0;resizeParent=1;resizeParentMax=0;resizeLast=0;collapsible=1;marginBottom=0;whiteSpace=wrap;html=1;" parent="WIyWlLk6GJQsqaUBKTNV-1" vertex="1">
          <mxGeometry x="165" y="1210" width="140" height="80" as="geometry" />
        </mxCell>
        <mxCell id="XqHFQ3ukrLC09OGUhirR-24" value="-id: Integer&lt;div&gt;-symptom: String&lt;/div&gt;" style="text;strokeColor=none;fillColor=none;align=left;verticalAlign=middle;spacingLeft=4;spacingRight=4;overflow=hidden;points=[[0,0.5],[1,0.5]];portConstraint=eastwest;rotatable=0;whiteSpace=wrap;html=1;" parent="XqHFQ3ukrLC09OGUhirR-23" vertex="1">
          <mxGeometry y="30" width="140" height="50" as="geometry" />
        </mxCell>
        <mxCell id="XqHFQ3ukrLC09OGUhirR-25" value="&lt;b&gt;Disease&lt;/b&gt;" style="swimlane;fontStyle=0;childLayout=stackLayout;horizontal=1;startSize=30;horizontalStack=0;resizeParent=1;resizeParentMax=0;resizeLast=0;collapsible=1;marginBottom=0;whiteSpace=wrap;html=1;" parent="WIyWlLk6GJQsqaUBKTNV-1" vertex="1">
          <mxGeometry x="165" y="1330" width="140" height="80" as="geometry" />
        </mxCell>
        <mxCell id="XqHFQ3ukrLC09OGUhirR-26" value="-id: Integer&lt;div&gt;&lt;span style=&quot;background-color: initial;&quot;&gt;-disease: String&lt;/span&gt;&lt;/div&gt;" style="text;strokeColor=none;fillColor=none;align=left;verticalAlign=middle;spacingLeft=4;spacingRight=4;overflow=hidden;points=[[0,0.5],[1,0.5]];portConstraint=eastwest;rotatable=0;whiteSpace=wrap;html=1;" parent="XqHFQ3ukrLC09OGUhirR-25" vertex="1">
          <mxGeometry y="30" width="140" height="50" as="geometry" />
        </mxCell>
        <mxCell id="XqHFQ3ukrLC09OGUhirR-27" value="&lt;b&gt;Surgery&lt;/b&gt;" style="swimlane;fontStyle=0;childLayout=stackLayout;horizontal=1;startSize=30;horizontalStack=0;resizeParent=1;resizeParentMax=0;resizeLast=0;collapsible=1;marginBottom=0;whiteSpace=wrap;html=1;" parent="WIyWlLk6GJQsqaUBKTNV-1" vertex="1">
          <mxGeometry x="165" y="1450" width="140" height="80" as="geometry" />
        </mxCell>
        <mxCell id="XqHFQ3ukrLC09OGUhirR-28" value="-id: Integer&lt;div&gt;&lt;span style=&quot;background-color: initial;&quot;&gt;-surgery: String&lt;/span&gt;&lt;/div&gt;" style="text;strokeColor=none;fillColor=none;align=left;verticalAlign=middle;spacingLeft=4;spacingRight=4;overflow=hidden;points=[[0,0.5],[1,0.5]];portConstraint=eastwest;rotatable=0;whiteSpace=wrap;html=1;" parent="XqHFQ3ukrLC09OGUhirR-27" vertex="1">
          <mxGeometry y="30" width="140" height="50" as="geometry" />
        </mxCell>
        <mxCell id="XqHFQ3ukrLC09OGUhirR-29" value="" style="line;strokeWidth=1;fillColor=none;align=left;verticalAlign=middle;spacingTop=-1;spacingLeft=3;spacingRight=3;rotatable=0;labelPosition=right;points=[];portConstraint=eastwest;strokeColor=inherit;" parent="WIyWlLk6GJQsqaUBKTNV-1" vertex="1">
          <mxGeometry x="85" y="950" width="20" height="8" as="geometry" />
        </mxCell>
        <mxCell id="XqHFQ3ukrLC09OGUhirR-30" value="" style="endArrow=none;html=1;rounded=0;entryX=0;entryY=0.542;entryDx=0;entryDy=0;entryPerimeter=0;exitX=0.013;exitY=0.572;exitDx=0;exitDy=0;exitPerimeter=0;" parent="WIyWlLk6GJQsqaUBKTNV-1" source="XqHFQ3ukrLC09OGUhirR-31" target="XqHFQ3ukrLC09OGUhirR-29" edge="1">
          <mxGeometry width="50" height="50" relative="1" as="geometry">
            <mxPoint x="68" y="1192" as="sourcePoint" />
            <mxPoint x="525" y="1102" as="targetPoint" />
          </mxGeometry>
        </mxCell>
        <mxCell id="XqHFQ3ukrLC09OGUhirR-31" value="" style="line;strokeWidth=1;fillColor=none;align=left;verticalAlign=middle;spacingTop=-1;spacingLeft=3;spacingRight=3;rotatable=0;labelPosition=right;points=[];portConstraint=eastwest;strokeColor=inherit;" parent="WIyWlLk6GJQsqaUBKTNV-1" vertex="1">
          <mxGeometry x="85" y="1270" width="80" height="8" as="geometry" />
        </mxCell>
        <mxCell id="XqHFQ3ukrLC09OGUhirR-32" value="" style="endArrow=none;html=1;rounded=0;exitX=0.004;exitY=0.44;exitDx=0;exitDy=0;exitPerimeter=0;" parent="WIyWlLk6GJQsqaUBKTNV-1" source="XqHFQ3ukrLC09OGUhirR-33" edge="1">
          <mxGeometry width="50" height="50" relative="1" as="geometry">
            <mxPoint x="66.29999999999973" y="1369.996" as="sourcePoint" />
            <mxPoint x="65" y="940" as="targetPoint" />
          </mxGeometry>
        </mxCell>
        <mxCell id="XqHFQ3ukrLC09OGUhirR-33" value="" style="line;strokeWidth=1;fillColor=none;align=left;verticalAlign=middle;spacingTop=-1;spacingLeft=3;spacingRight=3;rotatable=0;labelPosition=right;points=[];portConstraint=eastwest;strokeColor=inherit;" parent="WIyWlLk6GJQsqaUBKTNV-1" vertex="1">
          <mxGeometry x="65" y="1390" width="100" height="8" as="geometry" />
        </mxCell>
        <mxCell id="XqHFQ3ukrLC09OGUhirR-34" value="m" style="text;html=1;align=center;verticalAlign=middle;whiteSpace=wrap;rounded=0;" parent="WIyWlLk6GJQsqaUBKTNV-1" vertex="1">
          <mxGeometry x="50" y="910" width="60" height="30" as="geometry" />
        </mxCell>
        <mxCell id="XqHFQ3ukrLC09OGUhirR-35" value="m" style="text;html=1;align=center;verticalAlign=middle;whiteSpace=wrap;rounded=0;" parent="WIyWlLk6GJQsqaUBKTNV-1" vertex="1">
          <mxGeometry x="70" y="970" width="60" height="30" as="geometry" />
        </mxCell>
        <mxCell id="XqHFQ3ukrLC09OGUhirR-36" value="m" style="text;html=1;align=center;verticalAlign=middle;whiteSpace=wrap;rounded=0;" parent="WIyWlLk6GJQsqaUBKTNV-1" vertex="1">
          <mxGeometry x="115" y="1368" width="60" height="30" as="geometry" />
        </mxCell>
        <mxCell id="XqHFQ3ukrLC09OGUhirR-37" value="m" style="text;html=1;align=center;verticalAlign=middle;whiteSpace=wrap;rounded=0;" parent="WIyWlLk6GJQsqaUBKTNV-1" vertex="1">
          <mxGeometry x="115" y="1248" width="60" height="30" as="geometry" />
        </mxCell>
        <mxCell id="XqHFQ3ukrLC09OGUhirR-38" value="" style="line;strokeWidth=1;fillColor=none;align=left;verticalAlign=middle;spacingTop=-1;spacingLeft=3;spacingRight=3;rotatable=0;labelPosition=right;points=[];portConstraint=eastwest;strokeColor=inherit;" parent="WIyWlLk6GJQsqaUBKTNV-1" vertex="1">
          <mxGeometry x="35" y="630" width="70" height="558" as="geometry" />
        </mxCell>
        <mxCell id="XqHFQ3ukrLC09OGUhirR-39" value="" style="endArrow=none;html=1;rounded=0;entryX=0;entryY=0.542;entryDx=0;entryDy=0;entryPerimeter=0;exitX=0.013;exitY=0.572;exitDx=0;exitDy=0;exitPerimeter=0;" parent="WIyWlLk6GJQsqaUBKTNV-1" source="XqHFQ3ukrLC09OGUhirR-40" target="XqHFQ3ukrLC09OGUhirR-38" edge="1">
          <mxGeometry width="50" height="50" relative="1" as="geometry">
            <mxPoint x="68" y="1422" as="sourcePoint" />
            <mxPoint x="525" y="1332" as="targetPoint" />
            <Array as="points">
              <mxPoint x="35" y="910" />
            </Array>
          </mxGeometry>
        </mxCell>
        <mxCell id="XqHFQ3ukrLC09OGUhirR-40" value="" style="line;strokeWidth=1;fillColor=none;align=left;verticalAlign=middle;spacingTop=-1;spacingLeft=3;spacingRight=3;rotatable=0;labelPosition=right;points=[];portConstraint=eastwest;strokeColor=inherit;" parent="WIyWlLk6GJQsqaUBKTNV-1" vertex="1">
          <mxGeometry x="35" y="1500" width="130" height="8" as="geometry" />
        </mxCell>
        <mxCell id="XqHFQ3ukrLC09OGUhirR-41" value="m" style="text;html=1;align=center;verticalAlign=middle;whiteSpace=wrap;rounded=0;" parent="WIyWlLk6GJQsqaUBKTNV-1" vertex="1">
          <mxGeometry x="40" y="875" width="60" height="30" as="geometry" />
        </mxCell>
        <mxCell id="XqHFQ3ukrLC09OGUhirR-42" value="m" style="text;html=1;align=center;verticalAlign=middle;whiteSpace=wrap;rounded=0;" parent="WIyWlLk6GJQsqaUBKTNV-1" vertex="1">
          <mxGeometry x="115" y="1475" width="60" height="30" as="geometry" />
        </mxCell>
        <mxCell id="XqHFQ3ukrLC09OGUhirR-43" value="&lt;div style=&quot;&quot;&gt;&lt;span style=&quot;background-color: initial;&quot;&gt;&lt;font style=&quot;font-size: 14px;&quot;&gt;pojos&lt;/font&gt;&lt;/span&gt;&lt;/div&gt;" style="text;strokeColor=none;fillColor=none;spacingLeft=4;spacingRight=4;overflow=hidden;rotatable=0;points=[[0,0.5],[1,0.5]];portConstraint=eastwest;fontSize=12;whiteSpace=wrap;html=1;align=center;" parent="WIyWlLk6GJQsqaUBKTNV-1" vertex="1">
          <mxGeometry x="-5" y="80" width="55" height="20" as="geometry" />
        </mxCell>
        <mxCell id="XqHFQ3ukrLC09OGUhirR-44" value="" style="endArrow=none;html=1;rounded=0;exitX=0.25;exitY=1;exitDx=0;exitDy=0;" parent="WIyWlLk6GJQsqaUBKTNV-1" source="XqHFQ3ukrLC09OGUhirR-34" edge="1">
          <mxGeometry width="50" height="50" relative="1" as="geometry">
            <mxPoint x="55" y="990" as="sourcePoint" />
            <mxPoint x="105" y="940" as="targetPoint" />
          </mxGeometry>
        </mxCell>
        <mxCell id="XqHFQ3ukrLC09OGUhirR-46" value="" style="endArrow=none;html=1;rounded=0;entryX=-0.003;entryY=0.325;entryDx=0;entryDy=0;entryPerimeter=0;" parent="WIyWlLk6GJQsqaUBKTNV-1" target="XqHFQ3ukrLC09OGUhirR-2" edge="1">
          <mxGeometry width="50" height="50" relative="1" as="geometry">
            <mxPoint x="115" y="259" as="sourcePoint" />
            <mxPoint x="165" y="209" as="targetPoint" />
          </mxGeometry>
        </mxCell>
        <mxCell id="XqHFQ3ukrLC09OGUhirR-47" value="" style="endArrow=none;html=1;rounded=0;entryX=0.9;entryY=0.99;entryDx=0;entryDy=0;entryPerimeter=0;" parent="WIyWlLk6GJQsqaUBKTNV-1" target="XqHFQ3ukrLC09OGUhirR-17" edge="1">
          <mxGeometry width="50" height="50" relative="1" as="geometry">
            <mxPoint x="115" y="501" as="sourcePoint" />
            <mxPoint x="156" y="501" as="targetPoint" />
          </mxGeometry>
        </mxCell>
        <mxCell id="XqHFQ3ukrLC09OGUhirR-45" value="" style="endArrow=none;html=1;rounded=0;exitX=0.998;exitY=0.422;exitDx=0;exitDy=0;exitPerimeter=0;" parent="WIyWlLk6GJQsqaUBKTNV-1" edge="1">
          <mxGeometry width="50" height="50" relative="1" as="geometry">
            <mxPoint x="385.0000000000002" y="279.86800000000005" as="sourcePoint" />
            <mxPoint x="415.46" y="280" as="targetPoint" />
          </mxGeometry>
        </mxCell>
        <mxCell id="XqHFQ3ukrLC09OGUhirR-48" value="m" style="text;html=1;align=center;verticalAlign=middle;whiteSpace=wrap;rounded=0;" parent="WIyWlLk6GJQsqaUBKTNV-1" vertex="1">
          <mxGeometry x="105" y="230" width="60" height="30" as="geometry" />
        </mxCell>
        <mxCell id="XqHFQ3ukrLC09OGUhirR-64" value="" style="shape=folder;fontStyle=1;spacingTop=10;tabWidth=100;tabHeight=30;tabPosition=left;html=1;whiteSpace=wrap;" parent="WIyWlLk6GJQsqaUBKTNV-1" vertex="1">
          <mxGeometry x="520" y="80" width="640" height="340" as="geometry" />
        </mxCell>
        <mxCell id="XqHFQ3ukrLC09OGUhirR-65" value="&lt;font style=&quot;font-size: 11px;&quot;&gt;ConnectionDoctor&lt;/font&gt;" style="text;strokeColor=none;fillColor=none;spacingLeft=4;spacingRight=4;overflow=hidden;rotatable=0;points=[[0,0.5],[1,0.5]];portConstraint=eastwest;fontSize=12;whiteSpace=wrap;html=1;align=left;" parent="WIyWlLk6GJQsqaUBKTNV-1" vertex="1">
          <mxGeometry x="520" y="80" width="130" height="30" as="geometry" />
        </mxCell>
        <mxCell id="XqHFQ3ukrLC09OGUhirR-66" value="&lt;p style=&quot;margin:0px;margin-top:4px;text-align:center;&quot;&gt;&lt;b&gt;ConnectionDoctor&lt;/b&gt;&lt;/p&gt;&lt;hr size=&quot;1&quot; style=&quot;border-style:solid;&quot;&gt;&lt;p style=&quot;margin:0px;margin-left:4px;&quot;&gt;- socket: Socket&lt;/p&gt;&lt;p style=&quot;margin:0px;margin-left:4px;&quot;&gt;- bufferedReader: BufferedReader&lt;/p&gt;&lt;p style=&quot;margin:0px;margin-left:4px;&quot;&gt;- printWriter: PrintWriter&lt;br&gt;&lt;/p&gt;&lt;hr size=&quot;1&quot; style=&quot;border-style:solid;&quot;&gt;&lt;p style=&quot;margin:0px;margin-left:4px;&quot;&gt;+ connectToServer(ip_address: String)&lt;/p&gt;&lt;p style=&quot;margin: 0px 0px 0px 4px;&quot;&gt;+ closeConnection()&lt;/p&gt;&lt;div&gt;&lt;p style=&quot;margin: 0px 0px 0px 4px;&quot;&gt;&lt;span style=&quot;background-color: initial;&quot;&gt;+ sendRegisterServer(doctor: Doctor, encryptedPassword: String): boolean&lt;/span&gt;&lt;br&gt;&lt;/p&gt;&lt;/div&gt;&lt;div&gt;&lt;p style=&quot;margin: 0px 0px 0px 4px;&quot;&gt;+ validateLogin(dni: String, password: String): boolean&lt;/p&gt;&lt;p style=&quot;margin: 0px 0px 0px 4px;&quot;&gt;+ viewDoctorDetails(doctorDni: String): Doctor&lt;/p&gt;&lt;/div&gt;&lt;div&gt;&lt;p style=&quot;margin: 0px 0px 0px 4px;&quot;&gt;+ getPatientsByDoctor(doctorDni: String): List&amp;lt;Patient&amp;gt;&lt;/p&gt;&lt;p style=&quot;margin: 0px 0px 0px 4px;&quot;&gt;+ viewPatientInformation(dni: String): Patient&lt;span style=&quot;background-color: initial;&quot;&gt;&lt;br&gt;&lt;/span&gt;&lt;/p&gt;&lt;p style=&quot;margin: 0px 0px 0px 4px;&quot;&gt;&lt;span style=&quot;background-color: initial;&quot;&gt;+ viewAllEpisodes(patientDni: String): ArrayList&amp;lt;Episode&amp;gt;&lt;/span&gt;&lt;/p&gt;&lt;p style=&quot;margin: 0px 0px 0px 4px;&quot;&gt;+ viewPatientEpisode(episode_id: int, patient_id: int): Episode&lt;span style=&quot;background-color: initial;&quot;&gt;&lt;br&gt;&lt;/span&gt;&lt;/p&gt;&lt;p style=&quot;margin: 0px 0px 0px 4px;&quot;&gt;&lt;span style=&quot;background-color: initial;&quot;&gt;+ getAvailableDiseases(): List&amp;lt;Disease&amp;gt;&lt;/span&gt;&lt;/p&gt;&lt;/div&gt;&lt;div&gt;&lt;p style=&quot;margin: 0px 0px 0px 4px;&quot;&gt;+ getAvailableSurgeries(): List&amp;lt;Surgery&amp;gt;&lt;/p&gt;&lt;/div&gt;&lt;div&gt;&lt;p style=&quot;margin: 0px 0px 0px 4px;&quot;&gt;+ updateEpisode(Episode episode, List&amp;lt;String&amp;gt; diseases, List&amp;lt;String&amp;gt; surgeries): boolean&lt;/p&gt;&lt;/div&gt;&lt;div&gt;&lt;p style=&quot;margin: 0px 0px 0px 4px;&quot;&gt;&lt;br&gt;&lt;/p&gt;&lt;/div&gt;&lt;div&gt;&lt;br&gt;&lt;/div&gt;" style="verticalAlign=top;align=left;overflow=fill;html=1;whiteSpace=wrap;" parent="WIyWlLk6GJQsqaUBKTNV-1" vertex="1">
          <mxGeometry x="543.75" y="130" width="592.5" height="270" as="geometry" />
        </mxCell>
        <mxCell id="XqHFQ3ukrLC09OGUhirR-67" value="" style="shape=folder;fontStyle=1;spacingTop=10;tabWidth=80;tabHeight=30;tabPosition=left;html=1;whiteSpace=wrap;" parent="WIyWlLk6GJQsqaUBKTNV-1" vertex="1">
          <mxGeometry x="520" y="449" width="640" height="250" as="geometry" />
        </mxCell>
        <mxCell id="XqHFQ3ukrLC09OGUhirR-68" value="Executable" style="text;html=1;align=center;verticalAlign=middle;whiteSpace=wrap;rounded=0;" parent="WIyWlLk6GJQsqaUBKTNV-1" vertex="1">
          <mxGeometry x="520" y="450" width="80" height="30" as="geometry" />
        </mxCell>
        <mxCell id="XqHFQ3ukrLC09OGUhirR-69" value="&lt;p style=&quot;margin:0px;margin-top:4px;text-align:center;&quot;&gt;&lt;b&gt;DoctorMenu&lt;/b&gt;&lt;/p&gt;&lt;hr size=&quot;1&quot; style=&quot;border-style:solid;&quot;&gt;&lt;p style=&quot;margin:0px;margin-left:4px;&quot;&gt;&lt;span style=&quot;background-color: initial;&quot;&gt;+ main(args: String[])&lt;/span&gt;&lt;/p&gt;&lt;p style=&quot;margin: 0px 0px 0px 4px;&quot;&gt;+ mainMenu()&lt;/p&gt;&lt;div&gt;&lt;p style=&quot;margin: 0px 0px 0px 4px;&quot;&gt;+ loginMenu():&lt;/p&gt;&lt;/div&gt;&lt;div&gt;&lt;div&gt;&lt;p style=&quot;margin: 0px 0px 0px 4px;&quot;&gt;+ registerDoctor():&lt;/p&gt;&lt;/div&gt;&lt;div&gt;&lt;/div&gt;&lt;p style=&quot;margin: 0px 0px 0px 4px;&quot;&gt;&lt;span style=&quot;background-color: initial;&quot;&gt;+ doctorMenu(doctorDni: String)&lt;/span&gt;&lt;br&gt;&lt;/p&gt;&lt;p style=&quot;margin: 0px 0px 0px 4px;&quot;&gt;&lt;span style=&quot;background-color: initial;&quot;&gt;+ viewPatientsMenu(doctorDni: String)&lt;/span&gt;&lt;/p&gt;&lt;p style=&quot;margin: 0px 0px 0px 4px;&quot;&gt;&lt;span style=&quot;background-color: initial;&quot;&gt;+ viewEpisodesByPatient(patient: Patient)&lt;/span&gt;&lt;/p&gt;&lt;/div&gt;&lt;div&gt;&lt;p style=&quot;margin: 0px 0px 0px 4px;&quot;&gt;+ insertEpisodeFeedback(selectedEpisode: Episode)&lt;/p&gt;&lt;p style=&quot;margin: 0px 0px 0px 4px;&quot;&gt;+ selectDiseases(): List&amp;lt;String&amp;gt;&lt;/p&gt;&lt;p style=&quot;margin: 0px 0px 0px 4px;&quot;&gt;+ selectSurgeries(): List&amp;lt;String&amp;gt;&lt;/p&gt;&lt;p style=&quot;margin: 0px 0px 0px 4px;&quot;&gt;&lt;br&gt;&lt;/p&gt;&lt;/div&gt;&lt;div&gt;&lt;br&gt;&lt;/div&gt;&lt;div&gt;&lt;br&gt;&lt;/div&gt;" style="verticalAlign=top;align=left;overflow=fill;html=1;whiteSpace=wrap;" parent="WIyWlLk6GJQsqaUBKTNV-1" vertex="1">
          <mxGeometry x="543.75" y="499" width="592.5" height="180" as="geometry" />
        </mxCell>
        <mxCell id="XqHFQ3ukrLC09OGUhirR-70" value="" style="shape=folder;fontStyle=1;spacingTop=10;tabWidth=60;tabHeight=30;tabPosition=left;html=1;whiteSpace=wrap;" parent="WIyWlLk6GJQsqaUBKTNV-1" vertex="1">
          <mxGeometry x="520" y="729" width="450" height="440" as="geometry" />
        </mxCell>
        <mxCell id="XqHFQ3ukrLC09OGUhirR-71" value="&lt;b&gt;Utilities&lt;/b&gt;" style="swimlane;fontStyle=0;childLayout=stackLayout;horizontal=1;startSize=26;fillColor=none;horizontalStack=0;resizeParent=1;resizeParentMax=0;resizeLast=0;collapsible=1;marginBottom=0;whiteSpace=wrap;html=1;" parent="WIyWlLk6GJQsqaUBKTNV-1" vertex="1">
          <mxGeometry x="551.88" y="879" width="390" height="260" as="geometry" />
        </mxCell>
        <mxCell id="XqHFQ3ukrLC09OGUhirR-72" value="- r: BufferedReader" style="text;strokeColor=none;fillColor=none;align=left;verticalAlign=top;spacingLeft=4;spacingRight=4;overflow=hidden;rotatable=0;points=[[0,0.5],[1,0.5]];portConstraint=eastwest;whiteSpace=wrap;html=1;" parent="XqHFQ3ukrLC09OGUhirR-71" vertex="1">
          <mxGeometry y="26" width="390" height="24" as="geometry" />
        </mxCell>
        <mxCell id="XqHFQ3ukrLC09OGUhirR-79" value="" style="line;strokeWidth=1;fillColor=none;align=left;verticalAlign=middle;spacingTop=-1;spacingLeft=3;spacingRight=3;rotatable=0;labelPosition=right;points=[];portConstraint=eastwest;strokeColor=inherit;" parent="XqHFQ3ukrLC09OGUhirR-71" vertex="1">
          <mxGeometry y="50" width="390" height="8" as="geometry" />
        </mxCell>
        <mxCell id="XqHFQ3ukrLC09OGUhirR-77" value="&lt;span style=&quot;&quot;&gt;+ readInteger(): int&lt;/span&gt;&lt;div style=&quot;&quot;&gt;+ readString(): String&lt;br&gt;&lt;/div&gt;&lt;div style=&quot;&quot;&gt;+ validateDNI(id: String): boolean&lt;/div&gt;&lt;div style=&quot;&quot;&gt;+ validateEmail(email: String): boolean&lt;/div&gt;&lt;div style=&quot;&quot;&gt;&lt;span style=&quot;background-color: initial;&quot;&gt;+ valid_ipAddress(ipAddress: String): boolean&lt;/span&gt;&lt;br&gt;&lt;/div&gt;&lt;div style=&quot;&quot;&gt;&lt;span style=&quot;background-color: initial;&quot;&gt;+ isValidFormat(ipAddress: String): boolean&lt;/span&gt;&lt;/div&gt;&lt;div style=&quot;&quot;&gt;+ isReachable(ipAddress: String): boolean&lt;span style=&quot;background-color: initial;&quot;&gt;&lt;br&gt;&lt;/span&gt;&lt;/div&gt;&lt;div style=&quot;&quot;&gt;+ getValidIPAddress(): String&lt;/div&gt;&lt;div style=&quot;&quot;&gt;+ showDoctorDetails(doctor: Doctor)&lt;/div&gt;&lt;div style=&quot;&quot;&gt;&lt;div&gt;+ showPatientDetails(patient: Patient)&lt;/div&gt;&lt;/div&gt;&lt;div style=&quot;&quot;&gt;+getValidInput(min: int, max: int): int&lt;/div&gt;&lt;div style=&quot;&quot;&gt;+ printPatientList(patients: List&amp;lt;Patient&amp;gt;)&lt;/div&gt;&lt;div style=&quot;&quot;&gt;+ displayMenu(title: String, options: String[]): int&lt;/div&gt;&lt;div style=&quot;&quot;&gt;+ displayListWithMenu(list: List&amp;lt;T&amp;gt;, title: String, backOption: String): int&lt;br&gt;&lt;/div&gt;" style="text;html=1;align=left;verticalAlign=middle;whiteSpace=wrap;rounded=0;" parent="XqHFQ3ukrLC09OGUhirR-71" vertex="1">
          <mxGeometry y="58" width="390" height="202" as="geometry" />
        </mxCell>
        <mxCell id="XqHFQ3ukrLC09OGUhirR-73" value="&lt;font style=&quot;font-size: 12px;&quot;&gt;Utilities&lt;/font&gt;" style="text;strokeColor=none;fillColor=none;spacingLeft=4;spacingRight=4;overflow=hidden;rotatable=0;points=[[0,0.5],[1,0.5]];portConstraint=eastwest;fontSize=12;whiteSpace=wrap;html=1;" parent="WIyWlLk6GJQsqaUBKTNV-1" vertex="1">
          <mxGeometry x="525" y="733" width="50" height="30" as="geometry" />
        </mxCell>
        <mxCell id="XqHFQ3ukrLC09OGUhirR-74" value="&lt;b&gt;Encryption&lt;/b&gt;" style="swimlane;fontStyle=0;childLayout=stackLayout;horizontal=1;startSize=26;fillColor=none;horizontalStack=0;resizeParent=1;resizeParentMax=0;resizeLast=0;collapsible=1;marginBottom=0;whiteSpace=wrap;html=1;" parent="WIyWlLk6GJQsqaUBKTNV-1" vertex="1">
          <mxGeometry x="550.63" y="789" width="390" height="60" as="geometry" />
        </mxCell>
        <mxCell id="XqHFQ3ukrLC09OGUhirR-75" value="+ encryptPasswordMD5(password: String): String" style="text;strokeColor=none;fillColor=none;align=left;verticalAlign=top;spacingLeft=4;spacingRight=4;overflow=hidden;rotatable=0;points=[[0,0.5],[1,0.5]];portConstraint=eastwest;whiteSpace=wrap;html=1;" parent="XqHFQ3ukrLC09OGUhirR-74" vertex="1">
          <mxGeometry y="26" width="390" height="34" as="geometry" />
        </mxCell>
        <mxCell id="e2FRMSLVPTGs9c0EroCL-0" value="" style="shape=folder;fontStyle=1;spacingTop=10;tabWidth=60;tabHeight=30;tabPosition=left;html=1;whiteSpace=wrap;" vertex="1" parent="WIyWlLk6GJQsqaUBKTNV-1">
          <mxGeometry x="520" y="1200" width="550" height="270" as="geometry" />
        </mxCell>
        <mxCell id="e2FRMSLVPTGs9c0EroCL-1" value="Swing" style="text;html=1;align=center;verticalAlign=middle;whiteSpace=wrap;rounded=0;" vertex="1" parent="WIyWlLk6GJQsqaUBKTNV-1">
          <mxGeometry x="520" y="1200" width="60" height="30" as="geometry" />
        </mxCell>
        <mxCell id="e2FRMSLVPTGs9c0EroCL-2" value="&lt;b&gt;ECGSignalReconstruction&lt;/b&gt;" style="swimlane;fontStyle=0;childLayout=stackLayout;horizontal=1;startSize=26;fillColor=none;horizontalStack=0;resizeParent=1;resizeParentMax=0;resizeLast=0;collapsible=1;marginBottom=0;whiteSpace=wrap;html=1;" vertex="1" parent="WIyWlLk6GJQsqaUBKTNV-1">
          <mxGeometry x="541.88" y="1248" width="506.25" height="104" as="geometry" />
        </mxCell>
        <mxCell id="e2FRMSLVPTGs9c0EroCL-3" value="+ reconstructSignal(data: ArrayList&amp;lt;Integer&amp;gt;)" style="text;strokeColor=none;fillColor=none;align=left;verticalAlign=top;spacingLeft=4;spacingRight=4;overflow=hidden;rotatable=0;points=[[0,0.5],[1,0.5]];portConstraint=eastwest;whiteSpace=wrap;html=1;" vertex="1" parent="e2FRMSLVPTGs9c0EroCL-2">
          <mxGeometry y="26" width="506.25" height="26" as="geometry" />
        </mxCell>
        <mxCell id="e2FRMSLVPTGs9c0EroCL-4" value="+ generateECGSignal(): ArrayList&amp;lt;Integer&amp;gt;" style="text;strokeColor=none;fillColor=none;align=left;verticalAlign=top;spacingLeft=4;spacingRight=4;overflow=hidden;rotatable=0;points=[[0,0.5],[1,0.5]];portConstraint=eastwest;whiteSpace=wrap;html=1;" vertex="1" parent="e2FRMSLVPTGs9c0EroCL-2">
          <mxGeometry y="52" width="506.25" height="26" as="geometry" />
        </mxCell>
        <mxCell id="e2FRMSLVPTGs9c0EroCL-5" value="+ main(args: String[])" style="text;strokeColor=none;fillColor=none;align=left;verticalAlign=top;spacingLeft=4;spacingRight=4;overflow=hidden;rotatable=0;points=[[0,0.5],[1,0.5]];portConstraint=eastwest;whiteSpace=wrap;html=1;" vertex="1" parent="e2FRMSLVPTGs9c0EroCL-2">
          <mxGeometry y="78" width="506.25" height="26" as="geometry" />
        </mxCell>
        <mxCell id="e2FRMSLVPTGs9c0EroCL-6" value="&lt;b&gt;EMGSignalReconstruction&lt;/b&gt;" style="swimlane;fontStyle=0;childLayout=stackLayout;horizontal=1;startSize=26;fillColor=none;horizontalStack=0;resizeParent=1;resizeParentMax=0;resizeLast=0;collapsible=1;marginBottom=0;whiteSpace=wrap;html=1;" vertex="1" parent="WIyWlLk6GJQsqaUBKTNV-1">
          <mxGeometry x="541.88" y="1371" width="506.25" height="78" as="geometry" />
        </mxCell>
        <mxCell id="e2FRMSLVPTGs9c0EroCL-7" value="+ reconstructSignal(data: ArrayList&amp;lt;Integer&amp;gt;)" style="text;strokeColor=none;fillColor=none;align=left;verticalAlign=top;spacingLeft=4;spacingRight=4;overflow=hidden;rotatable=0;points=[[0,0.5],[1,0.5]];portConstraint=eastwest;whiteSpace=wrap;html=1;" vertex="1" parent="e2FRMSLVPTGs9c0EroCL-6">
          <mxGeometry y="26" width="506.25" height="26" as="geometry" />
        </mxCell>
        <mxCell id="e2FRMSLVPTGs9c0EroCL-8" value="+ main(args: String[])" style="text;strokeColor=none;fillColor=none;align=left;verticalAlign=top;spacingLeft=4;spacingRight=4;overflow=hidden;rotatable=0;points=[[0,0.5],[1,0.5]];portConstraint=eastwest;whiteSpace=wrap;html=1;" vertex="1" parent="e2FRMSLVPTGs9c0EroCL-6">
          <mxGeometry y="52" width="506.25" height="26" as="geometry" />
        </mxCell>
      </root>
    </mxGraphModel>
  </diagram>
</mxfile>
